<?xml version="1.0"?>
<svg xmlns="http://www.w3.org/2000/svg" xmlns:xlink="http://www.w3.org/1999/xlink" xmlns:svgjs="http://svgjs.com/svgjs" version="1.1" width="512" height="512" x="0" y="0" viewBox="0 0 512 512" style="enable-background:new 0 0 512 512" xml:space="preserve" class=""><g><g xmlns="http://www.w3.org/2000/svg"><path d="m512 391h-30v-270h30v-90h-512v90h30.001v270h-30.001v90h512zm-30-300h-51v-30h51zm-371 0v-30h50v30zm80-30h50v30h-50zm80 0h50v30h-50zm80 0h50v30h-50zm-321 0h51v30h-51zm30 60h392.001v270h-392.001zm101 300v30h-50v-30zm30 0h50v30h-50zm80 0h50v30h-50zm80 0h50v30h-50zm-321 0h51v30h-51zm452 30h-51v-30h51z" fill="#2d3092" data-original="#000000" style=""/><path d="m211 167.972v176.056l132.042-88.028zm30 56.056 47.958 31.972-47.958 31.972z" fill="#2d3092" data-original="#000000" style=""/></g></g></svg>
